<?xml version="1.0" standalone="no"?><!DOCTYPE svg PUBLIC "-//W3C//DTD SVG 1.1//EN" "http://www.w3.org/Graphics/SVG/1.1/DTD/svg11.dtd"><svg t="1536807538321" class="icon" style="" viewBox="0 0 1024 1024" version="1.1" xmlns="http://www.w3.org/2000/svg" p-id="6497" xmlns:xlink="http://www.w3.org/1999/xlink" width="200" height="200"><defs><style type="text/css"></style></defs><path d="M800 192C782.336 192 768 206.336 768 224S782.336 256 800 256 832 270.336 832 288l0 640c0 17.6-14.336 32-32 32l-640 0C142.4 960 128 945.6 128 928l0-640C128 270.336 142.4 256 160 256 177.664 256 192 241.664 192 224S177.664 192 160 192C107.072 192 64 235.072 64 288l0 640C64 980.928 107.072 1024 160 1024l640 0c52.928 0 96-43.072 96-96l0-640C896 235.072 852.928 192 800 192zM288 256l384 0C689.664 256 704 241.664 704 224S689.664 192 672 192L636.736 192C621.952 118.976 557.376 64 480 64S338.048 118.976 323.264 192L288 192C270.336 192 256 206.336 256 224S270.336 256 288 256zM480 128c41.664 0 76.224 26.88 89.536 64L390.464 192C403.776 154.88 438.336 128 480 128zM448 832l64 0 64 0 128 0L704 576 576 576 576 384 384 384l0 128L256 512l0 320 128 0L448 832zM576 640l64 0 0 128L576 768 576 640zM448 448l64 0 0 320L448 768 448 448zM320 576l64 0 0 192L320 768 320 576z" p-id="6498" fill="#f04864"></path></svg>