<?xml version="1.0" standalone="no"?><!DOCTYPE svg PUBLIC "-//W3C//DTD SVG 1.1//EN" "http://www.w3.org/Graphics/SVG/1.1/DTD/svg11.dtd"><svg t="1536803963195" class="icon" style="" viewBox="0 0 1024 1024" version="1.1" xmlns="http://www.w3.org/2000/svg" p-id="4766" data-spm-anchor-id="a313x.7781069.0.i4" xmlns:xlink="http://www.w3.org/1999/xlink" width="200" height="200"><defs><style type="text/css"></style></defs><path d="M832 896 192 896C156.656 896 128 867.344 128 832L128 192C128 156.656 156.656 128 192 128L416 128C433.664 128 448 142.336 448 160 448 177.68 433.664 192 416 192L192 192 192 832 832 832 832 608C832 590.336 846.336 576 864 576 881.68 576 896 590.336 896 608L896 832C896 867.344 867.344 896 832 896ZM864 448C846.32 448 832 433.68 832 416L832 234.544 435.728 630.816C423.856 642.688 404.608 642.688 392.736 630.816 380.864 618.944 380.864 599.696 392.736 587.824L788.56 192 608 192C590.32 192 576 177.68 576 160 576 142.32 590.32 128 608 128L864 128C881.68 128 896 142.32 896 160L896 416C896 433.68 881.68 448 864 448Z" p-id="4767" fill="#1890ff"></path></svg>