<?xml version="1.0" standalone="no"?><!DOCTYPE svg PUBLIC "-//W3C//DTD SVG 1.1//EN" "http://www.w3.org/Graphics/SVG/1.1/DTD/svg11.dtd"><svg t="1536806361089" class="icon" style="" viewBox="0 0 1024 1024" version="1.1" xmlns="http://www.w3.org/2000/svg" p-id="6028" xmlns:xlink="http://www.w3.org/1999/xlink" width="200" height="200"><defs><style type="text/css"></style></defs><path d="M523.52 598.4C593.28 552.32 640 473.6 640 384c0-141.44-114.56-256-256-256C242.56 128 128 242.56 128 384c0 89.6 46.72 168.32 116.48 214.4C101.76 645.12 0 765.44 0 928 0 945.92 14.08 960 32 960S64 945.92 64 928C64 751.36 207.36 640 384 640c176.64 0 320 111.36 320 288 0 17.92 14.08 32 32 32 17.92 0 32-14.08 32-32C768 765.44 666.24 645.12 523.52 598.4zM384 576C278.4 576 192 489.6 192 384s86.4-192 192-192c105.6 0 192 86.4 192 192S489.6 576 384 576zM804.48 602.24C878.08 556.8 928 476.8 928 384c0-141.44-114.56-256-256-256C654.08 128 640 142.08 640 160 640 177.92 654.08 192 672 192c105.6 0 192 86.4 192 192 0 71.04-38.4 132.48-96 165.76-56.32 34.56-71.68 83.2 0 109.44 111.36 39.68 192 144 192 269.44 0 17.92 14.08 32 32 32 17.92 0 32-14.08 32-32C1024 780.8 933.12 654.72 804.48 602.24z" p-id="6029" fill="#fa8c16"></path></svg>