<?xml version="1.0" standalone="no"?><!DOCTYPE svg PUBLIC "-//W3C//DTD SVG 1.1//EN" "http://www.w3.org/Graphics/SVG/1.1/DTD/svg11.dtd"><svg t="1536804476031" class="icon" style="" viewBox="0 0 1025 1024" version="1.1" xmlns="http://www.w3.org/2000/svg" p-id="5180" xmlns:xlink="http://www.w3.org/1999/xlink" width="200.1953125" height="200"><defs><style type="text/css"></style></defs><path d="M225.536 256.768c-17.664 0-32 14.336-32 32s14.336 32 32 32l384 0c17.664 0 32-14.336 32-32s-14.336-32-32-32L225.536 256.768zM353.536 704.768c17.664 0 32-14.336 32-32s-14.336-32-32-32l-128 0c-17.664 0-32 14.336-32 32s14.336 32 32 32L353.536 704.768zM417.536 832.768l-288 0c-35.392 0-64-28.608-64-64l0-576c0-35.392 28.608-64 64-64l576 0c35.392 0 64 28.608 64 64l0 160c0 17.664 14.336 32 32 32s32-14.336 32-32l0-160c0-70.656-57.344-128-128-128l-576 0c-70.656 0-128 57.344-128 128l0 576c0 70.656 57.344 128 128 128l288 0c17.664 0 32-14.336 32-32S435.264 832.768 417.536 832.768zM417.536 448.768l-192 0c-17.664 0-32 14.336-32 32s14.336 32 32 32l192 0c17.664 0 32-14.336 32-32S435.264 448.768 417.536 448.768zM1014.272 902.4l-97.024-97.024c27.52-37.248 44.352-82.816 44.352-132.608 0-123.712-100.288-224-224-224s-224 100.288-224 224 100.288 224 224 224c49.792 0 95.424-16.832 132.608-44.288l97.024 97.024c12.992 12.992 34.048 12.992 47.04 0S1027.264 915.392 1014.272 902.4zM737.536 832.768c-88.384 0-160-71.616-160-160s71.616-160 160-160 160 71.616 160 160S825.92 832.768 737.536 832.768z" p-id="5181" fill="#f04864"></path></svg>