<?xml version="1.0" standalone="no"?><!DOCTYPE svg PUBLIC "-//W3C//DTD SVG 1.1//EN" "http://www.w3.org/Graphics/SVG/1.1/DTD/svg11.dtd"><svg t="1536806231347" class="icon" style="" viewBox="0 0 1024 1024" version="1.1" xmlns="http://www.w3.org/2000/svg" p-id="5725" xmlns:xlink="http://www.w3.org/1999/xlink" width="200" height="200"><defs><style type="text/css"></style></defs><path d="M480 0C215.04 0 0 215.04 0 480 0 744.96 215.04 960 480 960S960 744.96 960 480C960 215.04 744.96 0 480 0zM480 896C250.24 896 64 709.76 64 480 64 250.24 250.24 64 480 64 709.76 64 896 250.24 896 480 896 709.76 709.76 896 480 896zM480 192C391.68 192 320 263.68 320 352 320 369.92 334.08 384 352 384 369.92 384 384 369.92 384 352 384 298.88 426.88 256 480 256 533.12 256 576 298.88 576 352 576 405.12 533.12 448 480 448 462.08 448 448 462.08 448 480l0 128C448 625.92 462.08 640 480 640 497.92 640 512 625.92 512 608L512 508.8c72.96-14.72 128-79.36 128-156.8C640 263.68 568.32 192 480 192zM480 704C462.08 704 448 718.08 448 736 448 753.92 462.08 768 480 768 497.92 768 512 753.92 512 736 512 718.08 497.92 704 480 704z" p-id="5726" fill="#13c2c2"></path></svg>