<?xml version="1.0" standalone="no"?><!DOCTYPE svg PUBLIC "-//W3C//DTD SVG 1.1//EN" "http://www.w3.org/Graphics/SVG/1.1/DTD/svg11.dtd"><svg t="1536742301851" class="icon" style="" viewBox="0 0 1024 1024" version="1.1" xmlns="http://www.w3.org/2000/svg" p-id="2410" xmlns:xlink="http://www.w3.org/1999/xlink" width="200" height="200"><defs><style type="text/css"></style></defs><path d="M917.064447 291.579533 768.692032 291.579533c1.551472-1.919168 3.085581-3.948645 4.600283-6.113965 28.344241-40.526208 42.8335-87.548376 40.797895-132.405225-1.037719-22.876809-6.294748-44.07958-15.622987-63.016936-10.050353-20.403033-24.30878-37.155663-42.380008-49.794186C738.017007 27.609677 717.389271 19.963647 694.776999 17.521533c-20.988282-2.268479-42.70787 0.068432-64.553088 6.940259-42.8335 13.475031-82.032939 43.215495-110.37718 83.740682-2.479904 3.545201-4.846435 7.143513-7.112871 10.78268-2.265415-3.639167-4.632967-7.23748-7.112871-10.78268-28.344241-40.526208-67.543681-70.265651-110.37718-83.740682-21.845218-6.872848-43.564806-9.208738-64.553088-6.940259-22.612272 2.442113-43.240008 10.088144-61.310215 22.726666C251.309276 52.886722 237.049828 69.640374 226.999475 90.043407c-9.32926 18.938378-14.585268 40.140128-15.622987 63.016936-2.035605 44.856848 12.453653 91.880038 40.797895 132.405225 1.514703 2.16532 3.048811 4.194797 4.600283 6.113965L101.424201 291.579533c-50.232357 0-91.099705 40.867348-91.099705 91.099705l0 57.56176c0 50.232357 40.867348 91.099705 91.099705 91.099705l4.393965 0 0 377.07922c0 50.233378 40.867348 91.099705 91.099705 91.099705l630.26946 0c50.232357 0 91.098684-40.867348 91.098684-91.099705L918.286015 531.325383c49.670599-0.657767 89.877117-41.260579 89.877117-91.084385l0-57.56176C1008.164153 332.446881 967.296804 291.579533 917.064447 291.579533zM574.250393 146.252864c18.408283-29.642412 46.952714-49.356015 75.897526-58.461594 10.020733-3.15197 19.782035-4.715699 29.024479-4.715699 14.586289 0 27.880536 3.89349 38.865449 11.575269 17.945599 12.551706 28.504598 34.363218 29.732293 61.41746 1.375795 30.311414-11.756053 68.283158-38.005449 91.273339-57.638364 50.482594-126.60993 47.122263-144.555529 34.570557C551.759665 272.508376 537.159076 205.978923 574.250393 146.252864zM277.69758 156.069321c1.227696-27.054242 11.786694-48.866775 29.732293-61.41746 10.984913-7.6828 24.27916-11.575269 38.865449-11.575269 9.242443 0 19.003746 1.562707 29.024479 4.715699 28.94379 9.1066 57.489243 28.819182 75.897526 58.461594 37.090295 59.726059 22.490728 126.25449 9.041232 135.660354-17.945599 12.551706-86.917165 15.912037-144.555529-34.570557C289.453633 224.352479 276.321785 186.380735 277.69758 156.069321zM76.715041 440.240998l0-57.56176c0-13.625173 11.085008-24.710181 24.710181-24.710181l375.392926 0 0 106.982122L101.424201 464.951179C87.800049 464.951179 76.715041 453.867193 76.715041 440.240998zM172.208711 908.419924 172.208711 531.340703l304.609437 0 0 401.789401-279.898235 0C183.293719 933.130105 172.208711 922.045097 172.208711 908.419924zM827.188352 933.130105 545.75703 933.130105l0-401.789401 306.140481 0 0 377.07922C851.897512 922.045097 840.813525 933.130105 827.188352 933.130105zM941.774628 440.240998c0 13.625173-11.086029 24.710181-24.710181 24.710181L545.75703 464.951179 545.75703 357.969057l371.307417 0c13.625173 0 24.710181 11.085008 24.710181 24.710181L941.774628 440.240998z" p-id="2411" fill="#1296db"></path></svg>